<?xml version="1.0" encoding="UTF-8"?>
<svg version="1.1" xmlns="http://www.w3.org/2000/svg" width="512" height="512">
<path d="M0 0 C168.96 0 337.92 0 512 0 C512 168.96 512 337.92 512 512 C343.04 512 174.08 512 0 512 C0 343.04 0 174.08 0 0 Z " fill="#090909" transform="translate(0,0)"/>
<path d="M0 0 C5.40749946 -0.19880513 10.81284233 -0.34340657 16.22314453 -0.43945312 C18.06043579 -0.47951363 19.89747471 -0.5339819 21.73388672 -0.60351562 C36.97972355 -1.16603158 36.97972355 -1.16603158 41.91870117 1.68457031 C43.93368066 3.68820237 45.45057667 5.6271436 47 8 C48.08843981 9.26371785 49.19072888 10.5157741 50.3125 11.75 C50.87582031 12.40484375 51.43914062 13.0596875 52.01953125 13.734375 C54.46605768 16.53316263 56.98076721 19.26689817 59.5 22 C63.10035014 25.90960866 66.64418073 29.85867007 70.125 33.875 C72.54550075 36.61823418 75.02200642 39.30884568 77.5 42 C81.10012756 45.90981595 84.64417605 49.85866468 88.125 53.875 C90.54550075 56.61823418 93.02200642 59.30884568 95.5 62 C99.10012756 65.90981595 102.64417605 69.85866468 106.125 73.875 C109.01403915 77.14924437 111.98118534 80.35165605 114.93994141 83.56274414 C118.14683651 87.04972953 121.28953483 90.58225672 124.3671875 94.18359375 C126.49069848 96.54587271 128.74102483 98.76782623 131 101 C131.83192871 100.12879517 131.83192871 100.12879517 132.68066406 99.23999023 C135.19073147 96.62625526 137.71991027 94.03185181 140.25 91.4375 C141.12269531 90.52291016 141.99539063 89.60832031 142.89453125 88.66601562 C143.73886719 87.80556641 144.58320313 86.94511719 145.453125 86.05859375 C146.61569824 84.85674438 146.61569824 84.85674438 147.80175781 83.63061523 C150 82 150 82 152.15429688 82.12329102 C154.84290757 83.4003811 156.31812924 85.24846717 158.25 87.5 C159.02730469 88.39460938 159.80460938 89.28921875 160.60546875 90.2109375 C161.39566406 91.13132812 162.18585938 92.05171875 163 93 C164.51782699 94.71100497 166.03842804 96.41955535 167.5625 98.125 C168.70865596 99.4163804 169.85461745 100.70793358 171 102 C166.80098213 107.8890954 162.19659754 113.16572919 157.1875 118.375 C155.76353971 119.87165106 154.34035735 121.36904266 152.91796875 122.8671875 C152.24040527 123.5797168 151.5628418 124.29224609 150.86474609 125.02636719 C147.16208106 128.94523916 143.57512396 132.96471157 140 137 C139.23558594 137.85851562 138.47117187 138.71703125 137.68359375 139.6015625 C135.78689335 141.73246416 133.89238474 143.86526626 132 146 C128.37598787 144.50153206 126.3682297 142.44211507 123.8125 139.5 C123.02488281 138.6028125 122.23726563 137.705625 121.42578125 136.78125 C120.62527344 135.8634375 119.82476562 134.945625 119 134 C117.50313414 132.33051794 116.00319704 130.66378377 114.5 129 C108.5 122.33333333 102.5 115.66666667 96.5 109 C95.75492187 108.17242187 95.00984375 107.34484375 94.2421875 106.4921875 C92.76707382 104.85260121 91.29308348 103.21200345 89.8203125 101.5703125 C85.69902232 96.9796939 81.55126212 92.41552893 77.375 87.875 C73.81746901 84.00632178 70.31710425 80.09665875 66.875 76.125 C64.45449925 73.38176582 61.97799358 70.69115432 59.5 68 C55.89987244 64.09018405 52.35582395 60.14133532 48.875 56.125 C46.45449925 53.38176582 43.97799358 50.69115432 41.5 48 C37.89987244 44.09018405 34.35582395 40.14133532 30.875 36.125 C28.45449892 33.38176544 25.9779759 30.69117094 23.5 28 C19.88589543 24.0745339 16.31927744 20.11688215 12.83203125 16.078125 C9.64123347 12.45871259 6.33189191 8.9445791 3.0390625 5.41796875 C1 3 1 3 0 0 Z " fill="#FCFCFC" transform="translate(125,183)"/>
<path d="M0 0 C5.56823093 -0.19852452 11.13438168 -0.34327806 16.70532227 -0.43945312 C18.59794005 -0.47955987 20.49031187 -0.53406288 22.38208008 -0.60351562 C38.07965698 -1.16517584 38.07965698 -1.16517584 42.64599609 1.60546875 C44.42235598 3.64335772 45.69367662 5.64005099 47 8 C47.91594301 9.06988965 48.86281268 10.11436781 49.84375 11.125 C57.87974684 19.82278481 57.87974684 19.82278481 61.5 24 C64.86322638 27.87817013 68.33335671 31.65527811 71.80810547 35.43310547 C76.24223628 40.25584891 80.6251824 45.1234112 85 50 C86.49971128 51.66692647 87.99971321 53.33359149 89.5 55 C116.5 85 116.5 85 143.5 115 C144.24507812 115.82757813 144.99015625 116.65515625 145.7578125 117.5078125 C147.23292618 119.14739879 148.70691652 120.78799655 150.1796875 122.4296875 C150.90414062 123.23664063 151.62859375 124.04359375 152.375 124.875 C153.10589844 125.6896875 153.83679688 126.504375 154.58984375 127.34375 C156.36056015 129.29526889 158.14259335 131.23098993 159.94140625 133.15625 C160.43914551 133.69137207 160.93688477 134.22649414 161.44970703 134.77783203 C162.4194691 135.81888609 163.3929359 136.85650514 164.37060547 137.89013672 C166.76570158 140.46619178 168.51577658 142.82525836 170 146 C164.46850955 146.2487353 158.94032407 146.42933845 153.40454102 146.54931641 C151.52538313 146.59935841 149.64660982 146.66742085 147.76879883 146.75439453 C132.18195644 147.45780924 132.18195644 147.45780924 126.86474609 143.90527344 C124.59331615 141.38146239 122.81698122 138.86115977 121 136 C119.52750393 134.30898459 118.03015666 132.6390236 116.5 131 C98.5 111 98.5 111 96.2578125 108.5078125 C94.73291756 106.81407106 93.20684598 105.12138831 91.6796875 103.4296875 C79.57174638 90.0083426 79.57174638 90.0083426 75.75 85.125 C73.99973763 82.79062776 73.99973763 82.79062776 71 81 C70.08464344 79.84332216 69.21346712 78.65107082 68.375 77.4375 C65.34614436 73.28127874 61.88749739 69.79413223 58.21484375 66.20703125 C55.65282272 63.65404733 53.2996097 60.97349874 50.9453125 58.23046875 C48.51276385 55.44134169 46.00821386 52.72082451 43.5 50 C39.89962421 46.09041547 36.35581868 42.14132925 32.875 38.125 C30.45449925 35.38176582 27.97799358 32.69115432 25.5 30 C21.90541658 26.0962051 18.3626715 22.15725459 14.89453125 18.140625 C13.35168128 16.39736359 11.7868465 14.68642162 10.19921875 12.984375 C9.70292969 12.45070312 9.20664063 11.91703125 8.6953125 11.3671875 C7.71095812 10.31142918 6.72283218 9.25917125 5.73046875 8.2109375 C3.3000572 5.60100692 1.50174769 3.22104028 0 0 Z " fill="#20B47D" transform="translate(204,183)"/>
<path d="M0 0 C1.88594962 0.05022287 3.77202785 0.09583936 5.65820312 0.13671875 C10.25450493 0.24630492 14.84457484 0.41846929 19.4375 0.625 C17.4375 2.95833333 15.4375 5.29166667 13.4375 7.625 C12.91285156 8.23794922 12.38820313 8.85089844 11.84765625 9.48242188 C7.24314933 14.84584337 2.39107994 19.97507717 -2.44287109 25.13037109 C-5.94483011 28.87146095 -9.38116449 32.64950298 -12.72265625 36.53515625 C-15.30454017 39.4678694 -17.96709551 42.3237469 -20.625 45.1875 C-24.70636772 49.58616725 -28.70955566 54.02287204 -32.5625 58.625 C-36.63034412 58.11193858 -38.20457118 56.16445661 -40.8125 53.125 C-41.58980469 52.23039062 -42.36710937 51.33578125 -43.16796875 50.4140625 C-43.95816406 49.49367187 -44.74835938 48.57328125 -45.5625 47.625 C-47.08032699 45.91399503 -48.60092804 44.20544465 -50.125 42.5 C-51.27115596 41.2086196 -52.41711745 39.91706642 -53.5625 38.625 C-52.19639732 35.58773042 -50.63176193 33.41584974 -48.33203125 31.015625 C-47.37393555 30.00628906 -47.37393555 30.00628906 -46.39648438 28.9765625 C-45.72939453 28.28304687 -45.06230469 27.58953125 -44.375 26.875 C-40.56228695 22.88398096 -36.76274433 18.89693105 -33.13671875 14.734375 C-32.55164551 14.08871582 -31.96657227 13.44305664 -31.36376953 12.77783203 C-29.47069088 10.6107558 -29.47069088 10.6107558 -27.84716797 7.92138672 C-20.71474144 -2.23157839 -11.22979525 -0.5201251 0 0 Z " fill="#FBFBFB" transform="translate(369.5625,182.375)"/>
</svg>
